<?xml version="1.0" standalone="no"?><!DOCTYPE svg PUBLIC "-//W3C//DTD SVG 1.1//EN" "http://www.w3.org/Graphics/SVG/1.1/DTD/svg11.dtd"><svg t="1691154014158" class="icon" viewBox="0 0 1024 1024" version="1.1" xmlns="http://www.w3.org/2000/svg" p-id="2890" xmlns:xlink="http://www.w3.org/1999/xlink" width="64" height="64"><path d="M679.423788 746.847767l83.999973-395.999877q5.151998-25.151992-6.015998-35.999988t-29.43999-3.999999L234.239927 501.119843q-16.575995 6.271998-22.559993 14.271996t-1.44 15.135995 18.271995 11.135997l126.27196 39.423987 293.151909-184.575942q11.999996-7.999998 18.271994-3.423999 3.999999 2.847999-2.271999 8.575997l-237.151926 214.271934-9.151998 130.271959q13.151996 0 25.727992-12.575996l61.727981-59.423982 127.99996 94.271971q36.575989 20.575994 46.271986-21.727993m304.063905-433.599865l20.287993 47.423985Q1023.99968 407.999873 1023.99968 511.99984t-40.575987 198.847938-109.151966 163.423949-163.423949 109.151966T511.99984 1023.99968t-198.847938-40.575987-163.423949-109.151966-109.151966-163.423949T0 511.99984t40.575987-198.847938 109.151966-163.423949 163.423949-109.151966T511.99984 0t198.847938 40.575987 163.423949 109.151966 109.151966 163.423949z" fill="#4897C5" p-id="2891"></path></svg>